<svg width="100" height="85" viewBox="0 0 100 85" fill="none" xmlns="http://www.w3.org/2000/svg">
<path d="M0.0488486 33.8634C0.14654 33.5459 0.708261 32.0561 2.27133 31.3234C2.66209 31.1524 3.44363 30.835 4.42054 30.9571C4.73804 31.0059 5.91034 31.1769 7.18033 32.4469C8.25494 33.5215 44.1322 70.2046 47.4048 72.9644C47.7956 73.2819 48.7237 74.0635 49.9692 74.0879C51.3125 74.1123 52.3627 73.2819 52.729 72.9644C56.1727 70.1558 90.7066 34.5717 92.8803 32.4957C93.3199 32.0561 94.5166 30.9082 96.1041 30.9082C97.6916 30.9082 98.8639 31.6409 99.5477 33.033C100.28 34.474 100.109 35.8661 99.1325 37.1361C98.8883 37.478 98.5708 37.7711 98.2777 38.0641C83.3065 53.1331 68.3353 68.1531 53.3396 83.1976C51.0927 85.469 49.0412 85.469 46.7698 83.1976C45.1824 81.5857 3.10171 39.212 1.83172 38.0885C1.83172 38.0885 0.90365 37.2826 0.415192 36.2813C0.293078 36.0614 0.219804 35.8172 0.219804 35.8172C0.195381 35.744 0.170962 35.6951 0.146539 35.6463C0.07327 35.402 -1.78588e-07 35.0845 -1.78588e-07 34.6693C-1.78588e-07 34.3518 0.0244197 34.0832 0.0732655 33.8634H0.0488486Z" fill="#F43B00"/>
<path d="M7.15663 0.03259L92.9298 0.03259C93.2229 0.105859 95.3966 0.716431 96.3002 2.84122C97.1062 4.74621 96.5689 7.0908 94.8837 8.62944C71.9994 32.9546 55.0744 50.6857 52.9496 52.5418C52.5588 52.8837 51.4842 53.8118 50.0677 53.7874C48.7244 53.7874 47.7231 52.9081 47.3323 52.5662C45.2563 50.7345 27.4276 32.4662 3.24897 7.4083C2.10109 6.11389 1.75918 4.33102 2.34532 2.79237C3.07801 0.936234 5.05626 -0.211639 7.15663 0.03259Z" fill="#FEAF96"/>
</svg>
