<svg width="100" height="85" viewBox="0 0 100 85" fill="none" xmlns="http://www.w3.org/2000/svg">
<path d="M99.9512 51.0377C99.8535 51.3552 99.2917 52.845 97.7287 53.5777C97.3379 53.7487 96.5564 54.0662 95.5795 53.9441C95.262 53.8952 94.0897 53.7243 92.8197 52.4543C91.7451 51.3797 55.8678 14.6965 52.5952 11.9367C52.2044 11.6192 51.2763 10.8377 50.0308 10.8132C48.6875 10.7888 47.6373 11.6192 47.271 11.9367C43.8273 14.7453 9.29337 50.3295 7.11974 52.4054C6.68012 52.845 5.4834 53.9929 3.89591 53.9929C2.30843 53.9929 1.13613 53.2602 0.452286 51.8681C-0.280401 50.4272 -0.109441 49.0351 0.867475 47.7651C1.1117 47.4231 1.4292 47.1301 1.72228 46.837C16.6935 31.7681 31.6647 16.748 46.6604 1.7035C48.9073 -0.567832 50.9588 -0.567832 53.2302 1.7035C54.8176 3.31541 96.8983 45.6891 98.1683 46.8126C98.1683 46.8126 99.0964 47.6185 99.5848 48.6199C99.7069 48.8397 99.7802 49.0839 99.7802 49.0839C99.8046 49.1572 99.829 49.206 99.8535 49.2549C99.9267 49.4991 100 49.8166 100 50.2318C100 50.5493 99.9756 50.8179 99.9267 51.0377H99.9512Z" fill="#21E900"/>
<path d="M92.8435 84.8685H7.07028C6.77721 84.7953 4.60357 84.1847 3.69992 82.0599C2.89397 80.1549 3.43127 77.8103 5.11645 76.2717C28.0007 51.9465 44.9258 34.2155 47.0506 32.3593C47.4413 32.0174 48.5159 31.0893 49.9325 31.1138C51.2757 31.1138 52.2771 31.993 52.6678 32.3349C54.7438 34.1666 72.5725 52.4349 96.7512 77.4928C97.899 78.7872 98.2409 80.5701 97.6548 82.1087C96.9221 83.9649 94.9439 85.1128 92.8435 84.8685Z" fill="#AFFFA0"/>
</svg>
