<svg width="50" height="22" viewBox="0 0 50 22" fill="none" xmlns="http://www.w3.org/2000/svg">
<path d="M12.7623 13.422C10.7955 12.0811 8.8734 10.7401 6.90663 9.39909C6.05734 10.2037 5.16335 11.0753 4.22466 11.9246C3.24127 12.8186 1.76619 12.3716 1.47564 11.0753C1.34154 10.4495 1.56504 9.93548 2.01203 9.51084C2.70488 8.84035 3.42007 8.16985 4.13526 7.52171C4.26936 7.38761 4.42581 7.29822 4.694 7.09707C4.17996 6.62772 3.75531 6.29248 3.35302 5.89018C2.36963 4.86209 1.43094 3.83401 0.469903 2.78357C-0.178239 2.04603 -0.155889 1.06264 0.536952 0.436848C1.22979 -0.188944 2.19083 -0.121895 2.90602 0.593296C4.6493 2.40362 6.34788 4.25865 8.18056 5.97958C11.0413 8.6839 14.3044 10.8295 18.1038 12.0364C24.7194 14.1372 30.9996 13.2656 36.9223 9.71199C40.0513 7.83461 42.6662 5.37614 45.1247 2.73887C45.7728 2.04603 46.421 1.33084 47.0691 0.637996C47.7843 -0.121895 48.7677 -0.211294 49.4605 0.414498C50.1534 1.04029 50.1981 2.06838 49.4829 2.82827C48.2983 4.12455 47.0914 5.37614 45.8846 6.65007C45.7505 6.78417 45.5717 6.89592 45.3705 7.05237C46.2869 7.92401 47.1138 8.70625 47.9407 9.48849C48.4324 9.95783 48.6783 10.5166 48.4995 11.1871C48.1642 12.4163 46.7338 12.8186 45.7728 11.947C44.9682 11.2318 44.2083 10.4719 43.4484 9.73434C43.3143 9.60024 43.1802 9.48849 43.0908 9.39909C41.1464 10.7401 39.2243 12.0587 37.2352 13.422C37.2799 13.5338 37.3693 13.7573 37.4811 13.9584C37.9057 14.8301 38.3303 15.6794 38.755 16.5734C39.1573 17.4226 38.8444 18.3613 38.0845 18.7636C37.2799 19.1659 36.2742 18.853 35.8272 18.0037C35.2908 16.931 34.7544 15.8358 34.218 14.7183C31.7819 15.6347 29.3011 16.2158 26.6638 16.3722C26.6638 17.5567 26.6638 18.6742 26.6638 19.8141C26.6638 20.7304 25.9933 21.4009 25.1217 21.4456C24.2053 21.4903 23.4454 20.7975 23.4231 19.8588C23.4231 18.7189 23.4231 17.5791 23.4231 16.3722C20.8305 16.1934 18.3273 15.6347 15.8689 14.696C15.3548 15.7688 14.8631 16.8416 14.3267 17.8696C14.1479 18.2049 13.8574 18.5401 13.5221 18.7413C12.9411 19.1212 12.1812 18.9871 11.6895 18.5178C11.1754 18.0484 10.9966 17.3109 11.3095 16.6628C11.7342 15.7241 12.2035 14.8077 12.6505 13.869C12.7399 13.7126 12.807 13.5338 12.8517 13.4444L12.7623 13.422Z" fill="url(#paint0_linear_318_3)"/>
<defs>
<linearGradient id="paint0_linear_318_3" x1="25" y1="0" x2="25" y2="21.4476" gradientUnits="userSpaceOnUse">
<stop stop-color="#C3CCD4"/>
<stop offset="1" stop-color="#687785"/>
</linearGradient>
</defs>
</svg>
