<svg width="50" height="33" viewBox="0 0 50 33" fill="none" xmlns="http://www.w3.org/2000/svg">
<path d="M49.9453 16.7217C49.6718 17.9068 48.8383 18.7143 48.07 19.5738C44.4755 23.585 40.4513 27.0492 35.6326 29.5367C32.8587 30.9693 29.9284 31.933 26.8028 32.2065C23.0651 32.5321 19.5097 31.8418 16.0846 30.3572C11.9952 28.586 8.43984 26.0204 5.23609 22.9599C3.72538 21.5143 2.31885 19.9645 0.91233 18.4017C-0.272797 17.0864 -0.298844 15.3412 0.808143 13.9998C4.29841 9.79328 8.29658 6.17278 13.0762 3.4509C15.9934 1.79693 19.0799 0.611805 22.4269 0.16901C26.0605 -0.312855 29.5637 0.260174 32.9628 1.57553C37.1694 3.20345 40.842 5.69092 44.1239 8.73839C44.5667 9.15513 46.0774 10.6789 49.0076 13.8305C49.2421 14.091 49.776 14.677 49.9453 15.5496C50.0365 16.0445 49.9974 16.4612 49.9453 16.7217ZM24.9665 26.8799C30.9051 26.8799 35.7108 22.1004 35.7238 16.1617C35.7238 10.2361 30.9572 5.43045 25.0577 5.4044C19.0799 5.39138 14.2613 10.171 14.2613 16.1226C14.2613 22.0743 19.0409 26.8669 24.9795 26.8799H24.9665Z" fill="url(#paint0_diamond_318_4)"/>
<path d="M24.9795 23.8324C20.7339 23.8324 17.2957 20.3682 17.2957 16.0966C17.2957 11.877 20.773 8.43882 25.0056 8.43882C29.2512 8.43882 32.6894 11.9161 32.6894 16.1747C32.6894 20.3943 29.2121 23.8324 24.9795 23.8324Z" fill="url(#paint1_radial_318_4)"/>
<defs>
<radialGradient id="paint0_diamond_318_4" cx="0" cy="0" r="1" gradientUnits="userSpaceOnUse" gradientTransform="translate(25 16.25) rotate(-0.954842) scale(25.0035 38.7222)">
<stop stop-color="#74828F"/>
<stop offset="1" stop-color="#C3CCD4"/>
</radialGradient>
<radialGradient id="paint1_radial_318_4" cx="0" cy="0" r="1" gradientUnits="userSpaceOnUse" gradientTransform="translate(24.9925 16.1356) rotate(89.9692) scale(13.8644)">
<stop stop-color="#73818E"/>
<stop offset="1" stop-color="#C3CCD4"/>
</radialGradient>
</defs>
</svg>
